<svg version="1.1" id="prefix__Layer_1" fill="currentColor" xmlns="http://www.w3.org/2000/svg" x="0" y="0"
    viewBox="0 0 1024 1024" xml:space="preserve">
    <path
        d="M511.97 259.12l69.69 40.22 79.63 46 79.7 45.99 79.63 46 109.69 63.31V270.47L711.27 144.03l-39.99-23.09-159.32-91.99-89.62 51.77-79.71 46-79.62 45.99-69.69 40.22h-.01l-14.72 8.5-25.29 14.6.01.01-59.62 34.44v115.08L631.3 695.99l-49.63 28.67-69.7 40.22-69.64-40.22-79.69-46-79.63-45.99-79.7-46-109.62-63.33v230.18l218.94 126.44 40 23.1 159.33 91.99 89.71-51.77 79.62-45.99 79.7-46 69.62-40.22 2.9-1.67 96.8-55.87V638.44L392.65 328.02l49.69-28.68z" />
</svg>
